<?xml version="1.0" encoding="utf-8" ?><svg xmlns="http://www.w3.org/2000/svg" xmlns:xlink="http://www.w3.org/1999/xlink" width="668" height="668" viewBox="0 0 668 668"><clipPath id="cl_3"><rect width="668" height="668"/></clipPath><g clip-path="url(#cl_3)"><path fill="#ffffff" transform="matrix(0.995529 0 0 1 -177.204 -174.5)" d="M0 0L1024 0L1024 1024L0 1024L0 0Z"/><path transform="matrix(0.995529 0 0 1 -177.204 -174.5)" d="M808.368 228.436C809.286 229.835 810.197 235.537 810.444 237.444C812.618 254.195 810.918 272.029 803.173 287.236C798.419 296.395 791.679 304.377 783.447 310.599C760.754 327.768 714.497 339.551 686.808 346.372C678.45 348.431 667.947 350.292 660.011 352.932L659.275 353.18C670.417 354.926 687.167 355.688 698.497 355.545C744.435 354.967 789.556 347.586 828.503 322.185C828.482 328.69 827.986 334.512 826.658 340.988C812.193 411.518 733.781 397.528 680.918 391.348C677.003 390.89 664.011 388.034 661.428 389.445C662.628 392.03 671.95 396.133 674.847 397.431C722.268 418.682 768.439 434.022 820.706 434.489C784.5 500.799 729.039 462.362 677.807 440.142C673.391 438.227 656.866 427.991 653.303 430.487C652.718 435.205 658.983 439.483 662.343 442.43C693.686 469.926 729.412 493.951 768.374 509.162C777.243 512.625 786.403 514.973 795.463 517.369C786.889 525.74 774.42 533.44 762.879 536.824C753.24 539.7 743.015 539.996 733.225 537.684C706.876 531.342 674.93 502.497 653.508 486.003C646.05 480.261 639.833 474.558 631.407 469.892C645.397 495.499 666.284 514.654 686.313 535.33C707.776 557.487 730.386 575.761 754.367 594.965C746.304 597.117 738.411 599.292 730.078 600.138C718.801 601.284 707.292 599.983 697.017 595C673.226 583.463 640.092 537.992 622.951 516.28C616.687 508.346 610.233 498.944 602.328 492.628C602.151 492.487 601.971 492.35 601.792 492.211C607.278 506.114 618.797 527.325 625.595 541.611C633.978 559.229 644.289 584.458 654.864 599.668C611.107 597.422 603.25 564.284 588.071 530.537C585.573 524.985 583.082 519.618 580.918 513.899C580.834 528.029 584.256 551.977 588.392 565.466C581.144 558.715 564.373 535.491 557.428 526.26C558.825 541.919 560.494 554.16 569.812 567.434C580.625 582.84 591.419 593.96 607.774 603.463C599.403 603.62 594.731 602.877 586.502 601.674C598.873 616.306 611.03 625.548 630.428 629.203C621.873 629.578 611.53 631.089 602.703 631.902C603.151 632.557 603.614 633.202 604.09 633.836C610.196 641.924 623.09 649.236 633.211 650.616C647.273 651.996 663.556 645.903 674.881 637.912C679.441 634.695 682.629 629.732 687.147 626.507L687.977 626.475C699.422 626.054 710.528 632.513 716.328 642.392C719.528 647.843 719.686 652.943 719.833 659.072C712.239 647.991 707.921 642.459 694.62 639.152C690.149 655.5 680.471 655.471 666.8 661.464C664.501 662.472 660.995 663.87 661.493 666.767C667.983 673.414 689.158 669.404 696.769 674.425C713.066 685.176 702.926 709.104 695.098 721.857C697.444 701.409 695.311 687.525 671.888 684.236C664.649 683.219 659.14 682.283 651.566 682.459C650.346 685.572 649.648 688.866 649.502 692.206C648.927 704.827 656.765 721.552 665.281 730.76C641.166 728.891 635.047 715.384 631.435 694.001C628.295 675.409 617.61 665.803 602.007 656.127C605.664 674.012 606.869 680.908 608.112 699.569C602.556 688.674 579.348 658.611 570.461 650.057C570.271 661.279 572.419 675.866 572.504 688.509C568.43 679.559 561.317 670.363 556.545 661.414C547.577 644.601 541.648 629.408 530.463 613.692C530.347 652.379 554.921 702.403 585.935 725.511C594.822 732.133 610.241 737.762 621.426 735.788C598.812 753.497 579.111 740.412 558.103 727.441C565.636 745.995 580.881 765.322 598.256 775.284C572.157 777.026 550.062 772.879 530.628 754.294C524.397 767.627 517.121 783.425 511.336 796.792C507.131 781.256 502.039 765.835 491.091 753.649C473.275 772.306 452.419 776.621 427.502 775.021C449.408 764.527 463.399 743.004 469.589 720.152C458.483 730.88 445.594 741.483 429.917 744.27C418.811 746.245 410.712 742.56 401.862 736.427C402.213 736.451 402.565 736.47 402.916 736.485C420.419 737.182 437.69 726.67 449.953 715.036C476.755 689.61 492.187 650.316 493.346 613.743C483.059 628.071 478.603 640.281 470.438 655.528C464.951 665.775 456.224 679.274 449.605 689.098C451.323 679.536 453.334 659.018 453.492 649.23C443.247 657.155 423.094 684.518 414.233 695.881C415.95 682.11 418.167 672.237 421.512 658.903C392.649 670.375 397.024 689.762 386.27 714.613C382.746 721.527 379.164 725.486 371.626 728.41C364.891 731.022 358.072 727.041 361.418 719.524C362.114 717.959 366.303 717.366 368.137 716.905C381.921 713.44 372.838 689.558 370.115 680.693C360.84 682.704 351.877 684.367 342.805 687.284C332.886 690.474 328.882 693.773 326.18 703.751C325.127 712.095 326.371 717.894 328.685 725.8C320.304 711.041 311.966 695.144 322.944 678.499C332.486 664.03 357.443 675.655 363.74 667.155C365.289 659.222 347.207 659.243 341.467 656.366C333.967 652.606 333.904 643.72 328.072 641.718C317.428 638.063 310.467 652.868 307.219 660.645C305.183 653.599 305.967 645.493 310.537 639.525C315.017 633.673 323.399 628.701 330.645 627.484C338.157 626.221 342.777 631.352 348.132 635.527C358.752 643.472 377.18 652.745 390.849 650.767C403.494 648.938 413.877 641.939 421.55 632.079C414.222 631.927 403.081 630.628 395.946 629.193C412.284 623.829 428.739 615.873 438.341 601.171C431.443 602.373 423.818 603.487 416.834 603.785C422.953 599.922 428.348 596.164 433.661 591.288C456.026 570.764 463.754 556.645 465.52 526.991C457.325 539.131 446.891 552.862 436.835 563.532C439.579 549.741 443.164 526.597 442.854 512.798C439.639 519.962 436.102 527.256 433.012 534.432C426.124 550.428 421.712 566.419 410.33 580.039C399.538 592.953 386.095 599.158 369.47 600.766C381.453 581.691 388.884 564.16 398.105 543.671C404.877 528.625 415.935 507.577 420.781 492.141C413.835 498.174 405.427 510.865 399.507 518.539C382.184 540.991 365.751 562.649 345.174 582.365C323.184 603.436 296.979 605.229 268.881 594.473C307.874 568.99 347.914 530.598 376.717 493.946C381.907 487.341 388.426 478.371 392.007 470.941C383.867 474.644 375.302 482.587 367.971 487.999C322.066 521.883 283.951 564.181 228.165 517.388C240.559 514.819 252.684 511.091 264.38 506.254C296.982 492.753 340.493 464.21 365.785 439.171C367.428 437.544 371.105 433.983 371.099 431.708C369.523 430.655 367.192 431.567 365.518 432.301C332.214 446.71 298.068 465.377 261.984 471.509C235.831 475.953 216.058 455.246 204.837 434.434C250.642 433.907 292.243 422.074 334.359 404.174C344.059 400.051 352.976 396.122 362.148 390.838C354.097 392.157 335.379 394.395 327.399 394.771C292.888 396.398 247.076 403.774 219.28 378.956C201.117 362.74 196.59 346.012 194.922 323.103C244.991 355.419 307.849 357.689 365.381 353.601C335.217 346.947 273.822 331.504 248.825 315.67C239.546 309.849 231.575 302.166 225.417 293.107C211.645 272.762 210.395 252.153 215.022 228.739C220.499 234.587 225.09 240.4 231.117 246.061C261.347 274.454 297.005 298.005 336.977 309.989C345.883 312.66 354.948 314.459 363.985 316.391C344.041 306.039 320.479 293.1 311.365 271.565C334.829 287.806 379.866 285.854 407.835 285.425C398.248 316.976 388.342 376.61 394.778 408.49C398.471 426.787 407.124 446.553 423.255 457.158C430.726 462.069 439.673 464.42 448.522 462.422C458.092 460.261 463.537 454.028 468.482 446.001C462.163 448.754 459.594 449.503 452.767 450.562C454.191 449.491 455.588 448.384 456.955 447.24C472.422 434.437 475.436 423.706 477.299 403.987C471.572 406.39 468.892 406.145 462.994 405.292C477.825 393.946 484.585 368.838 479.046 351.053C476.255 342.093 468.648 338.125 460.706 334.487C470.844 331.113 474.793 333.759 485.026 334.308C489.516 334.549 492.384 334.143 496.84 333.478C484.316 319.545 464.652 318.796 447.365 321.619C438.116 323.129 440.622 329.398 443.23 335.454C438.488 332.541 433.555 327.939 432.295 322.29C431.278 317.731 432.222 312.648 434.646 308.419C439.64 299.709 452.818 304.025 455.024 303.075C464.014 299.201 461.705 292.56 475.788 290.584C496.641 287.66 509.094 299.822 528.646 299.172C531.089 299.091 536.902 297.662 539.579 297.048C537.795 302.146 534.615 307.321 531.119 311.425C533.307 314.778 535.5 318.099 537.408 321.604C549.021 342.942 546.483 368.366 554.328 390.835C556.428 396.847 560.363 402.637 563.877 407.959C557.148 406.491 554.377 406.274 548.392 402.677C548.441 404.873 548.535 407.067 548.675 409.258C550.058 428.383 553.367 436.541 567.362 448.65C561.274 448.321 558.746 447.855 552.955 445.972C556.471 451.657 560.359 455.881 566.285 458.94C602.256 477.507 623.686 434.367 628.748 406.112C636.321 363.839 628.009 324.952 615.937 284.939C654.532 285.868 674.289 288.062 711.122 272.851C706.154 287.059 690.174 299.215 677.835 306.991C671.747 310.827 665.082 313.994 658.936 318.058C723.267 304.377 764.357 276.244 808.368 228.436Z"/></g></svg>